# xmcd
#
# Track frame offsets: 
#        150
#        13097
#        37719
#        66758
#        86696
#        100430
#        120442
#        134127
#        158507
#        187895
#        207740
#
# Disc length: 3021 seconds
#
# Revision: 0
# Processed by: cddbd v1.5.2PL0 Copyright (c) Steve Scherf et al.
# Submitted via: ExactAudioCopy v0.99pb3
#
DISCID=910bcb0b
DTITLE=Byther Smith - Got No Place To Go
DYEAR=2008
DGENRE=Blues
TTITLE0=I'm A Honey Bee
TTITLE1=I Had My Fun (AKA Goin' Down Slow)
TTITLE2=Monticello Lonely
TTITLE3=I Know That's Grace!
TTITLE4=Got No Place To Go
TTITLE5=Byther Boogie
TTITLE6=How Much More
TTITLE7=35 Long Years
TTITLE8=Every Woman I Meet
TTITLE9=Come On In This House
TTITLE10=Red!! You Let The Dogs Out
EXTD=
EXTT0=
EXTT1=
EXTT2=
EXTT3=
EXTT4=
EXTT5=
EXTT6=
EXTT7=
EXTT8=
EXTT9=
EXTT10=
PLAYORDER=
